<svg width="50" height="60" viewBox="0 0 50 60" fill="none" xmlns="http://www.w3.org/2000/svg">
<path d="M0 0H49.9958V49.9958C49.9958 55.5187 45.5187 59.9958 39.9958 59.9958H9.99999C4.47715 59.9958 0 55.5187 0 49.9958V0Z" fill="#45CC63"/>
<path d="M17.242 36.746C15.5193 36.746 14.1367 36.1567 13.094 34.978C12.074 33.7993 11.564 32.292 11.564 30.456C11.564 28.62 12.074 27.1013 13.094 25.9C14.1367 24.6987 15.5193 24.098 17.242 24.098C18.9873 24.098 20.3587 24.6987 21.356 25.9C22.376 27.0787 22.886 28.5973 22.886 30.456C22.886 32.3147 22.376 33.8333 21.356 35.012C20.3587 36.168 18.9873 36.746 17.242 36.746ZM17.038 48L30.468 24.37H34.786L21.356 48H17.038ZM15.644 32.666C16.0067 33.2327 16.5393 33.516 17.242 33.516C17.9447 33.516 18.466 33.2327 18.806 32.666C19.1687 32.0767 19.35 31.34 19.35 30.456C19.35 29.572 19.1687 28.8353 18.806 28.246C18.466 27.634 17.9447 27.328 17.242 27.328C16.5393 27.328 16.0067 27.634 15.644 28.246C15.304 28.8353 15.134 29.572 15.134 30.456C15.134 31.34 15.304 32.0767 15.644 32.666ZM34.48 48.272C32.7573 48.272 31.386 47.6827 30.366 46.504C29.346 45.3253 28.836 43.818 28.836 41.982C28.836 40.146 29.346 38.6273 30.366 37.426C31.386 36.2247 32.7573 35.624 34.48 35.624C36.2253 35.624 37.608 36.2247 38.628 37.426C39.648 38.6047 40.158 40.1233 40.158 41.982C40.158 43.818 39.648 45.3253 38.628 46.504C37.608 47.6827 36.2253 48.272 34.48 48.272ZM34.514 45.042C35.194 45.042 35.7153 44.7473 36.078 44.158C36.4407 43.5687 36.622 42.8433 36.622 41.982C36.622 41.1207 36.4407 40.384 36.078 39.772C35.7153 39.16 35.194 38.854 34.514 38.854C33.8113 38.854 33.2787 39.16 32.916 39.772C32.5533 40.3613 32.372 41.098 32.372 41.982C32.372 42.8433 32.5533 43.5687 32.916 44.158C33.2787 44.7473 33.8113 45.042 34.514 45.042Z" fill="white"/>
</svg>
