<svg width="34" height="40" viewBox="0 0 34 40" fill="none" xmlns="http://www.w3.org/2000/svg">
<g clip-path="url(#clip0_1542_2021)">
<path fill-rule="evenodd" clip-rule="evenodd" d="M17.2804 38.6286C18.1319 38.6286 33.346 23.5394 33.346 15.3033C33.346 7.0671 26.1531 0.390381 17.2804 0.390381C8.40763 0.390381 1.21484 7.0671 1.21484 15.3033C1.21484 23.5394 16.4289 38.6286 17.2804 38.6286ZM17.2804 22.7622C21.7789 22.7622 25.4257 19.377 25.4257 15.2013C25.4257 11.0255 21.7789 7.64044 17.2804 7.64044C12.7819 7.64044 9.13519 11.0255 9.13519 15.2013C9.13519 19.377 12.7819 22.7622 17.2804 22.7622Z" fill="#FFC229"/>
<path fill-rule="evenodd" clip-rule="evenodd" d="M1.21484 15.3033C1.21484 23.5394 16.4289 38.6286 17.2804 38.6286V22.7622C12.7819 22.762 9.13519 19.377 9.13519 15.2013C9.13519 11.0256 12.7819 7.64046 17.2804 7.64044V0.390381C8.40763 0.390381 1.21484 7.0671 1.21484 15.3033Z" fill="#054FD6"/>
</g>
<defs>
<clipPath id="clip0_1542_2021">
<rect width="32.8318" height="40" fill="white" transform="translate(0.988281)"/>
</clipPath>
</defs>
</svg>
