<svg width="24" height="24" viewBox="0 0 24 24" fill="none" xmlns="http://www.w3.org/2000/svg">
<path fill-rule="evenodd" clip-rule="evenodd" d="M17.6 2C19.8402 2 20.9603 2 21.816 2.43597C22.5686 2.81947 23.1805 3.43139 23.564 4.18404C24 5.03969 24 6.15979 24 8.4V12.6C24 14.8402 24 15.9603 23.564 16.816C23.1805 17.5686 22.5686 18.1805 21.816 18.564C20.9603 19 19.8402 19 17.6 19L16.4999 19L17.6331 20.3598C18.1759 21.0111 17.7127 22 16.8649 22H7.13497C6.28713 22 5.82397 21.0111 6.36675 20.3598L7.49993 19L6.4 19C4.15979 19 3.03968 19 2.18404 18.564C1.43139 18.1805 0.819467 17.5686 0.435973 16.816C0 15.9603 0 14.8402 0 12.6V8.4C0 6.15979 0 5.03968 0.435974 4.18404C0.819467 3.43139 1.43139 2.81947 2.18404 2.43597C3.03968 2 4.15979 2 6.4 2H17.6ZM22 8.4V12.6C22 13.7531 21.9984 14.4977 21.9521 15.0643C21.9078 15.6077 21.8324 15.8091 21.782 15.908C21.5903 16.2843 21.2843 16.5903 20.908 16.782C20.8091 16.8324 20.6077 16.9078 20.0643 16.9521C19.4977 16.9984 18.7531 17 17.6 17L6.4 17C5.24689 17 4.50235 16.9984 3.93567 16.9521C3.39234 16.9078 3.19091 16.8324 3.09202 16.782C2.71569 16.5903 2.40973 16.2843 2.21799 15.908C2.1676 15.8091 2.09224 15.6077 2.04785 15.0643C2.00155 14.4977 2 13.7531 2 12.6L2 8.4C2 7.24689 2.00155 6.50235 2.04785 5.93567C2.09224 5.39234 2.1676 5.19091 2.21799 5.09202C2.40973 4.71569 2.71569 4.40973 3.09202 4.21799C3.19091 4.1676 3.39234 4.09225 3.93567 4.04785C4.50235 4.00155 5.24689 4 6.4 4L17.6 4C18.7531 4 19.4977 4.00156 20.0643 4.04785C20.6077 4.09225 20.8091 4.1676 20.908 4.21799C21.2843 4.40973 21.5903 4.71569 21.782 5.09202C21.8324 5.19091 21.9078 5.39235 21.9521 5.93567C21.9984 6.50235 22 7.24689 22 8.4Z" fill="#054FD6"/>
</svg>
